# xmcd
#
# Track frame offsets: 
#        150
#        20967
#        41202
#        56340
#        74034
#        91913
#        113422
#        133746
#        152023
#        165738
#        183140
#        195200
#        210704
#        228574
#
# Disc length: 3234 seconds
#
# Revision: 0
# Processed by: cddbd v1.4PL0 Copyright (c) Steve Scherf et al.
# Submitted via: ExactAudioCopy v0.90b4
#
DISCID=be0ca00e
DTITLE=Perfect Strangers - Perfect Strangers
DYEAR=2003
DGENRE=Bluegrass
TTITLE0=Sing Me A Song
TTITLE1=Roll On, John
TTITLE2=Scofield Mine Disaster
TTITLE3=Homeless Joe
TTITLE4=The Hermit Miner
TTITLE5=Bluegrass In The Backwoods
TTITLE6=Twenty One Years
TTITLE7=Canned By The Best
TTITLE8=Evening Shade
TTITLE9=The Greatest Midwestern Fear
TTITLE10=If We Never Meet Again
TTITLE11=Pineville Breakdown
TTITLE12=Fog On The Water
TTITLE13=Wandering Boy
EXTD=
EXTT0=
EXTT1=
EXTT2=
EXTT3=
EXTT4=
EXTT5=
EXTT6=
EXTT7=
EXTT8=
EXTT9=
EXTT10=
EXTT11=
EXTT12=
EXTT13=
PLAYORDER=
